HIERARCHY
ROOT Hips
{
	OFFSET 0.000000 0.000000 0.000000
	CHANNELS 6 Xposition Yposition Zposition Xrotation Yrotation Zrotation
	JOINT LeftUpLeg_virtual
	{
		OFFSET 0.000000 0.000000 0.000000
		CHANNELS 3 Xrotation Yrotation Zrotation
		JOINT LeftUpLeg
		{
			OFFSET 11.394100 -6.187798 -0.413800
			CHANNELS 3 Xrotation Yrotation Zrotation
			JOINT LeftLeg
			{
				OFFSET 0.430247 -32.302673 3.732800
				CHANNELS 3 Xrotation Yrotation Zrotation
				JOINT LeftFoot
				{
					OFFSET -0.430247 -48.264931 -6.423300
					CHANNELS 3 Xrotation Yrotation Zrotation
					JOINT LeftToeBase
					{
						OFFSET 4.230900 -16.068199 23.438400
						CHANNELS 3 Xrotation Yrotation Zrotation
						JOINT LeftToe_End
						{
							OFFSET 4.510700 0.695400 19.974600
							CHANNELS 3 Xrotation Yrotation Zrotation
							End Site
							{
								OFFSET 0 0 0
							}
						}
					}
				}
			}
		}
	}
	JOINT RightUpLeg_virtual
	{
		OFFSET 0.000000 0.000000 0.000000
		CHANNELS 3 Xrotation Yrotation Zrotation
		JOINT RightUpLeg
		{
			OFFSET -11.333700 -6.187798 -0.413800
			CHANNELS 3 Xrotation Yrotation Zrotation
			JOINT RightLeg
			{
				OFFSET -0.430392 -32.302628 3.733000
				CHANNELS 3 Xrotation Yrotation Zrotation
				JOINT RightFoot
				{
					OFFSET 0.430392 -48.264973 -6.423500
					CHANNELS 3 Xrotation Yrotation Zrotation
					JOINT RightToeBase
					{
						OFFSET -4.230900 -16.068199 23.438400
						CHANNELS 3 Xrotation Yrotation Zrotation
						JOINT RightToe_End
						{
							OFFSET -4.510700 0.695400 19.974600
							CHANNELS 3 Xrotation Yrotation Zrotation
							End Site
							{
								OFFSET 0 0 0
							}
						}
					}
				}
			}
		}
	}
	JOINT Spine_virtual
	{
		OFFSET 0.000000 0.000000 0.000000
		CHANNELS 3 Xrotation Yrotation Zrotation
		JOINT Spine
		{
			OFFSET -0.002400 12.777504 0.315300
			CHANNELS 3 Xrotation Yrotation Zrotation
			JOINT Spine1
			{
				OFFSET -0.002067 5.816869 0.032633
				CHANNELS 3 Xrotation Yrotation Zrotation
				JOINT Spine1_split
				{
					OFFSET -0.002067 5.816869 0.032633
					CHANNELS 3 Xrotation Yrotation Zrotation
					JOINT Spine2
					{
						OFFSET -0.002067 5.816869 0.032633
						CHANNELS 3 Xrotation Yrotation Zrotation
						JOINT Neck_virtual
						{
							OFFSET 0.000000 0.000000 0.000000
							CHANNELS 3 Xrotation Yrotation Zrotation
							JOINT Neck
							{
								OFFSET -0.003700 21.199493 -0.826900
								CHANNELS 3 Xrotation Yrotation Zrotation
								JOINT Head
								{
									OFFSET 0.000000 20.442200 4.834800
									CHANNELS 3 Xrotation Yrotation Zrotation
									JOINT HeadTop_End
									{
										OFFSET 0.000000 34.668396 4.968400
										CHANNELS 3 Xrotation Yrotation Zrotation
										End Site
										{
											OFFSET 0 0 0
										}
									}
								}
							}
						}
						JOINT LeftShoulder_virtual
						{
							OFFSET 0.000000 0.000000 0.000000
							CHANNELS 3 Xrotation Yrotation Zrotation
							JOINT LeftShoulder
							{
								OFFSET 3.288150 8.794197 -1.372250
								CHANNELS 3 Xrotation Yrotation Zrotation
								JOINT LeftShoulder_split
								{
									OFFSET 3.288150 8.794197 -1.372250
									CHANNELS 3 Xrotation Yrotation Zrotation
									JOINT LeftArm
									{
										OFFSET 11.953299 -2.279007 -0.146200
										CHANNELS 3 Xrotation Yrotation Zrotation
										JOINT LeftForeArm
										{
											OFFSET 18.448900 0.000000 0.000000
											CHANNELS 3 Xrotation Yrotation Zrotation
											JOINT LeftHand
											{
												OFFSET 29.527798 0.000000 0.000000
												CHANNELS 3 Xrotation Yrotation Zrotation
												End Site
												{
													OFFSET 0 0 0
												}
											}
										}
									}
								}
							}
						}
						JOINT RightShoulder_virtual
						{
							OFFSET 0.000000 0.000000 0.000000
							CHANNELS 3 Xrotation Yrotation Zrotation
							JOINT RightShoulder
							{
								OFFSET -3.249400 8.794197 -1.372250
								CHANNELS 3 Xrotation Yrotation Zrotation
								JOINT RightShoulder_split
								{
									OFFSET -3.249400 8.794197 -1.372250
									CHANNELS 3 Xrotation Yrotation Zrotation
									JOINT RightArm
									{
										OFFSET -11.953299 -2.279007 -0.146200
										CHANNELS 3 Xrotation Yrotation Zrotation
										JOINT RightForeArm
										{
											OFFSET -18.448900 0.000000 0.000000
											CHANNELS 3 Xrotation Yrotation Zrotation
											JOINT RightHand
											{
												OFFSET -29.527802 0.000000 0.000000
												CHANNELS 3 Xrotation Yrotation Zrotation
												End Site
												{
													OFFSET 0 0 0
												}
											}
										}
									}
								}
							}
						}
					}
				}
			}
		}
	}
}
MOTION
Frames: 8
Frame Time: 0.03333333
0.293465 80.722038 -6.713381 0.000000 0.000000 0.000000 -10.346423 4.153783 0.367777 -44.777006 -5.105549 13.752428 72.713197 0.389297 0.562479 -17.092197 -4.487334 -12.249149 -0.000037 -0.000001 -0.000003 0.000000 0.000000 0.000000 -10.346423 4.153783 0.367777 -41.127441 -2.595434 -20.359836 73.851243 -0.957482 -0.714526 -20.705319 -1.290773 11.960716 -0.000077 -0.000000 0.000002 0.000000 0.000000 0.000000 -10.346423 4.153783 0.367777 24.173052 0.184769 0.858087 14.300679 -0.000460 0.896334 0.000000 0.000000 0.000000 0.000000 0.000000 0.000000 14.301743 -0.006506 0.892862 18.888403 -1.028621 -1.227772 -9.502135 -3.128163 -0.026382 0.000000 0.000000 0.000000 14.301743 -0.006506 0.892862 1.369059 -20.607348 -8.030735 0.000000 0.000000 0.000000 -26.870565 1.825425 -58.551995 -139.815215 -76.593659 -137.273552 0.000000 0.000000 0.000000 14.301743 -0.006506 0.892862 4.241955 6.025671 23.458807 0.000000 0.000000 0.000000 -22.328969 30.789895 40.151366 -101.532381 65.933845 95.052430 0.000000 0.000000 0.000000 
0.222701 81.247559 -6.151878 0.000000 0.000000 0.000000 -11.642787 4.129937 0.323992 -42.054509 -5.162459 13.822403 71.741186 0.358443 0.555641 -17.505809 -4.138402 -12.393658 -0.000037 -0.000001 -0.000003 0.000000 0.000000 0.000000 -11.642787 4.129937 0.323992 -38.426614 -3.145855 -20.117048 72.715833 -0.938593 -0.697955 -21.046938 -1.376941 11.938576 -0.000077 -0.000000 0.000002 0.000000 0.000000 0.000000 -11.642787 4.129937 0.323992 23.956347 0.164415 0.822845 13.992116 -0.012111 0.874928 0.000000 0.000000 0.000000 0.000000 0.000000 0.000000 13.993083 -0.019272 0.870006 17.101286 -1.158556 -1.120068 -9.419541 -3.200687 0.179588 0.000000 0.000000 0.000000 13.993083 -0.019272 0.870006 1.274363 -20.464765 -8.784595 0.000000 0.000000 0.000000 -24.361975 0.125568 -58.409537 -134.037258 -77.572439 -130.766431 0.000000 0.000000 0.000000 13.993083 -0.019272 0.870006 4.281757 6.062522 24.486790 0.000000 0.000000 0.000000 -20.183597 30.544001 38.966926 -101.168605 66.637388 94.218662 0.000000 0.000000 0.000000 
0.113019 81.916786 -5.590183 0.000000 0.000000 0.000000 -12.399785 4.190832 0.296803 -39.705409 -5.172059 13.838973 70.393227 0.371921 0.546357 -17.726579 -3.862005 -12.534517 -0.000037 -0.000001 -0.000003 0.000000 0.000000 0.000000 -12.399785 4.190832 0.296803 -36.120117 -3.790144 -19.866678 71.285154 -0.879476 -0.676020 -21.256795 -1.540903 11.831223 -0.000077 0.000002 0.000002 0.000000 0.000000 0.000000 -12.399785 4.190832 0.296803 23.645224 0.132978 0.815745 13.485197 -0.074092 0.867700 0.000000 0.000000 0.000000 0.000000 0.000000 0.000000 13.486080 -0.083625 0.864977 15.039861 -1.249822 -1.288810 -9.417309 -3.318418 0.602192 0.000000 0.000000 0.000000 13.486080 -0.083625 0.864977 1.157234 -20.150253 -9.778058 0.000000 0.000000 0.000000 -22.947101 -1.113761 -58.002916 -128.515897 -78.463874 -124.614684 0.000000 0.000000 0.000000 13.486080 -0.083625 0.864977 4.416299 5.793500 25.390704 0.000000 0.000000 0.000000 -17.739861 29.670164 39.116746 -104.281539 68.988585 96.225938 0.000000 0.000000 0.000000 
-0.044379 82.580162 -5.031202 0.000000 0.000000 0.000000 -12.535909 4.235790 0.338362 -38.029578 -5.037458 13.867696 68.962118 0.336838 0.535199 -17.830837 -3.650125 -12.654703 -0.000037 0.000000 -0.000003 0.000000 0.000000 0.000000 -12.535909 4.235790 0.338362 -34.555143 -4.325992 -19.647638 69.919581 -0.812027 -0.654631 -21.414006 -1.725186 11.674943 -0.000077 0.000002 0.000002 0.000000 0.000000 0.000000 -12.535909 4.235790 0.338362 23.209968 0.051176 0.800029 12.703021 -0.226609 0.772104 0.000000 0.000000 0.000000 0.000000 0.000000 0.000000 12.703641 -0.233557 0.766655 12.861729 -1.200976 -1.613199 -9.877438 -3.291000 0.800853 0.000000 0.000000 0.000000 12.703641 -0.233557 0.766655 1.104433 -19.890674 -10.278940 0.000000 0.000000 0.000000 -21.196853 -2.412173 -57.702026 -130.960244 -81.096202 -125.841372 0.000000 0.000000 0.000000 12.703641 -0.233557 0.766655 4.503880 5.478723 25.672277 0.000000 0.000000 0.000000 -14.594895 29.842124 39.506156 -105.759052 71.476864 96.313290 0.000000 0.000000 0.000000 
-0.206327 83.290764 -4.500959 0.000000 0.000000 0.000000 -13.166088 4.154317 0.352046 -35.730273 -4.805923 14.041529 67.395007 0.312205 0.522802 -17.923366 -3.459033 -12.775740 -0.000037 -0.000001 -0.000003 0.000000 0.000000 0.000000 -13.166088 4.154317 0.352046 -32.385345 -4.803065 -19.248610 68.385985 -0.750347 -0.630500 -21.501325 -1.938325 11.502871 -0.000077 0.000003 0.000002 0.000000 0.000000 0.000000 -13.166088 4.154317 0.352046 22.904901 0.008248 0.729519 12.195143 -0.281555 0.670984 0.000000 0.000000 0.000000 0.000000 0.000000 0.000000 12.195646 -0.290507 0.666839 10.458422 -1.317361 -1.659815 -10.759487 -3.361455 1.045965 0.000000 0.000000 0.000000 12.195646 -0.290507 0.666839 1.067482 -19.566469 -10.690708 0.000000 0.000000 0.000000 -18.296509 -4.238704 -56.730496 -125.598286 -81.931842 -119.149003 0.000000 0.000000 0.000000 12.195646 -0.290507 0.666839 4.572032 5.202211 25.784060 0.000000 0.000000 0.000000 -11.288740 30.124618 39.155781 -102.578158 73.922086 91.818916 0.000000 0.000000 0.000000 
-0.353412 83.973526 -4.007477 0.000000 0.000000 0.000000 -13.853557 4.218250 0.283860 -33.496709 -4.730065 14.214285 65.893048 0.292393 0.510804 -17.966150 -3.311900 -12.885969 -0.000037 0.000000 -0.000003 0.000000 0.000000 0.000000 -13.853557 4.218250 0.283860 -30.157047 -5.434751 -18.853219 66.818156 -0.692057 -0.605515 -21.551904 -2.133059 11.336500 -0.000077 0.000002 0.000002 0.000000 0.000000 0.000000 -13.853557 4.218250 0.283860 22.648264 0.016268 0.712981 11.776395 -0.256764 0.672952 0.000000 0.000000 0.000000 0.000000 0.000000 0.000000 11.776781 -0.264248 0.668559 7.891111 -1.398278 -1.837221 -11.557454 -3.409344 1.234563 0.000000 0.000000 0.000000 11.776781 -0.264248 0.668559 1.032817 -19.106042 -11.155847 0.000000 0.000000 0.000000 -16.619768 -5.449993 -56.372809 -118.529491 -84.095386 -111.053965 0.000000 0.000000 0.000000 11.776781 -0.264248 0.668559 4.630554 5.011124 26.003536 0.000000 0.000000 0.000000 -9.306267 29.315141 39.517176 -101.900289 75.083962 90.412204 0.000000 0.000000 0.000000 
-0.507194 84.581985 -3.565321 0.000000 0.000000 0.000000 -14.176021 4.405386 0.259391 -31.844432 -4.727755 14.276812 64.507011 0.271345 0.499393 -17.921691 -3.206427 -12.985083 -0.000037 -0.000001 -0.000003 0.000000 0.000000 0.000000 -14.176021 4.405386 0.259391 -28.486890 -6.090708 -18.602242 65.418336 -0.625516 -0.582886 -21.583732 -2.295634 11.166290 -0.000077 0.000002 0.000002 0.000000 0.000000 0.000000 -14.176021 4.405386 0.259391 22.365490 0.012348 0.722118 11.285272 -0.268274 0.660601 0.000000 0.000000 0.000000 0.000000 0.000000 0.000000 11.285639 -0.276962 0.656644 5.420850 -1.398580 -1.915094 -12.613648 -3.343226 1.133862 0.000000 0.000000 0.000000 11.285639 -0.276962 0.656644 1.020261 -18.646145 -11.452215 0.000000 0.000000 0.000000 -15.439436 -6.574545 -56.556917 -105.558784 -86.816356 -97.231172 0.000000 0.000000 0.000000 11.285639 -0.276962 0.656644 4.750360 4.664572 26.531600 0.000000 0.000000 0.000000 -8.388294 28.061486 40.178632 -102.161571 77.721248 90.480506 0.000000 0.000000 0.000000 
-0.652439 85.098930 -3.182631 0.000000 0.000000 0.000000 -14.258934 4.645070 0.255992 -30.654384 -4.785865 14.271416 63.299857 0.255814 0.489330 -17.835878 -3.120441 -13.074960 -0.000037 0.000000 -0.000003 0.000000 0.000000 0.000000 -14.258934 4.645070 0.255992 -27.259864 -6.686513 -18.418426 64.222199 -0.587536 -0.563772 -21.603028 -2.437252 11.022476 -0.000077 0.000002 0.000002 0.000000 0.000000 0.000000 -14.258934 4.645070 0.255992 22.066014 -0.008066 0.737044 10.745596 -0.310787 0.657550 0.000000 0.000000 0.000000 0.000000 0.000000 0.000000 10.745861 -0.317755 0.654798 3.187142 -1.405924 -1.956494 -13.665230 -3.223827 0.902259 0.000000 0.000000 0.000000 10.745861 -0.317755 0.654798 1.020142 -18.166261 -11.657510 0.000000 0.000000 0.000000 -14.532744 -7.059264 -57.088039 14.171563 -88.826132 23.162929 0.000000 0.000000 0.000000 10.745861 -0.317755 0.654798 4.883594 4.261453 27.117868 0.000000 0.000000 0.000000 -7.703973 26.922203 40.646616 -102.479366 81.060767 90.762019 0.000000 0.000000 0.000000 
